HIERARCHY
ROOT Hips
{
	OFFSET -3.958830 18.904000 13.208200
	CHANNELS 6 Xposition Yposition Zposition Zrotation Yrotation Xrotation 
	JOINT LHipJoint
	{
		OFFSET 0.000000 0.000000 0.000000
		CHANNELS 3 Zrotation Yrotation Xrotation
		JOINT LeftUpLeg
		{
			OFFSET 1.800000 -1.400000 0.085000
			CHANNELS 3 Zrotation Yrotation Xrotation
			JOINT LeftLeg
			{
				OFFSET 2.215000 -6.000000 0.000000
				CHANNELS 3 Zrotation Yrotation Xrotation
				JOINT LeftFoot
				{
					OFFSET 2.500000 -6.900000 0.000000
					CHANNELS 3 Zrotation Yrotation Xrotation
					JOINT LeftToeBase
					{
						OFFSET 0.200000 -0.500000 1.950000
						CHANNELS 3 Zrotation Yrotation Xrotation
						End Site
						{
							OFFSET 0.000000 0.000000 0.000000
						}
					}
				}
			}
		}
	}
	JOINT RHipJoint
	{
		OFFSET 0.000000 0.000000 0.000000
		CHANNELS 3 Zrotation Yrotation Xrotation
		JOINT RightUpLeg
		{
			OFFSET -1.800000 -1.400000 0.085000
			CHANNELS 3 Zrotation Yrotation Xrotation
			JOINT RightLeg
			{
				OFFSET -2.215000 -6.000000 0.000000
				CHANNELS 3 Zrotation Yrotation Xrotation
				JOINT RightFoot
				{
					OFFSET -2.500000 -6.900000 0.000000
					CHANNELS 3 Zrotation Yrotation Xrotation
					JOINT RightToeBase
					{
						OFFSET -0.200000 -0.500000 1.950000
						CHANNELS 3 Zrotation Yrotation Xrotation
						End Site
						{
							OFFSET 0.000000 0.000000 0.000000
						}
					}
				}
			}
		}
	}
	JOINT LowerBack
	{
		OFFSET 0.000000 0.000000 0.000000
		CHANNELS 3 Zrotation Yrotation Xrotation
		JOINT Spine
		{
			OFFSET -0.087000 1.940000 -0.288900
			CHANNELS 3 Zrotation Yrotation Xrotation
			JOINT Spine1
			{
				OFFSET 0.000000 1.950000 0.060000
				CHANNELS 3 Zrotation Yrotation Xrotation
				JOINT Neck
				{
					OFFSET 0.000000 0.000000 0.000000
					CHANNELS 3 Zrotation Yrotation Xrotation
					JOINT Neck1
					{
						OFFSET 0.000000 1.600000 0.340000
						CHANNELS 3 Zrotation Yrotation Xrotation
						JOINT Head
						{
							OFFSET 0.000000 1.667000 -0.240000
							CHANNELS 3 Zrotation Yrotation Xrotation
							End Site
							{
								OFFSET 0.000000 0.000000 0.000000
							}
						}
					}
				}
				JOINT LeftShoulder
				{
					OFFSET 0.000000 0.000000 0.000000
					CHANNELS 3 Zrotation Yrotation Xrotation
					JOINT LeftArm
					{
						OFFSET 2.700000 1.550000 -0.730000
						CHANNELS 3 Zrotation Yrotation Xrotation
						JOINT LeftForeArm
						{
							OFFSET 5.450000 0.000000 0.000000
							CHANNELS 3 Zrotation Yrotation Xrotation
							JOINT LeftHand
							{
								OFFSET 3.450000 0.000000 0.000000
								CHANNELS 3 Zrotation Yrotation Xrotation
								JOINT LeftHandIndex1
								{
									OFFSET 0.750000 0.000000 0.000000
									CHANNELS 3 Zrotation Yrotation Xrotation
									End Site
									{
										OFFSET 0.000000 0.000000 0.000000
									}
								}
							}
						}
					}
				}
				JOINT RightShoulder
				{
					OFFSET 0.000000 0.000000 0.000000
					CHANNELS 3 Zrotation Yrotation Xrotation
					JOINT RightArm
					{
						OFFSET -2.700000 1.550000 -0.730000
						CHANNELS 3 Zrotation Yrotation Xrotation
						JOINT RightForeArm
						{
							OFFSET -5.450000 0.000000 0.000000
							CHANNELS 3 Zrotation Yrotation Xrotation
							JOINT RightHand
							{
								OFFSET -3.450000 0.000000 0.000000
								CHANNELS 3 Zrotation Yrotation Xrotation
								JOINT RightHandIndex1
								{
									OFFSET -0.750000 0.000000 0.000000
									CHANNELS 3 Zrotation Yrotation Xrotation
									End Site
									{
										OFFSET 0.000000 0.000000 0.000000
									}
								}
							}
						}
					}
				}
			}
		}
	}
}
MOTION
Frames: 13
Frame Time: 0.016667
-0.450930 14.166780 -2.420910 -38.492765 8.898446 29.401485 -15.615413 9.889265 5.803276 3.435140 -14.948663 -47.157966 -39.570105 18.662273 32.498402 1.101596 10.044098 1.069774 0.424380 0.172840 0.730550 18.550157 -7.376084 4.435839 19.490979 14.786112 -30.791570 -80.342034 20.619785 32.448547 -2.814635 -12.097424 0.443550 -0.102430 0.178610 0.391990 -3.272491 -2.440221 -9.966259 14.999660 -2.494245 66.835765 -4.081716 3.071337 14.669696 3.723770 8.595035 -13.216068 12.665146 -4.894513 51.586261 0.207140 3.007230 -14.309710 -7.495695 -31.250894 4.271020 11.044978 -21.783590 -7.517933 16.340447 -8.601516 -2.583846 -4.049579 2.528160 0.608200 0.011890 0.344190 0.002560 -0.657044 25.740096 8.523896 18.434601 4.013167 -23.963890 -29.844780 68.826723 -22.398718 1.703652 -0.960841 -0.013180 0.231100 -0.068100 -0.076500 
-0.403600 14.185430 -2.421770 -39.297345 8.897501 28.642994 -15.612838 10.081814 5.774171 2.908225 -14.718068 -46.202903 -38.467978 18.496303 32.859918 1.113256 9.941788 1.116906 0.467620 0.201220 0.799810 18.519604 -7.497439 4.365684 18.513414 14.304142 -30.329425 -72.697918 22.031868 39.707797 -2.917240 -12.470875 0.343817 -0.095910 0.114220 0.390440 -3.247095 -2.551636 -9.880616 15.642806 -3.181189 67.898491 -4.261489 2.926165 14.560502 4.147243 7.960510 -13.457621 11.163788 -4.707215 52.376163 -1.957010 3.076310 -14.623240 -8.257251 -31.773023 4.586173 11.279619 -20.914005 -7.787659 16.423189 -8.547741 -2.544457 -3.991120 2.549581 0.618430 -0.029180 0.392860 0.023930 -0.752506 26.917968 8.423677 16.417639 4.066009 -24.396019 -29.281581 68.362055 -21.617771 1.732056 -1.022198 0.006800 0.220810 -0.128130 -0.086440 
-0.329250 14.271400 -2.437300 -40.271149 8.973273 27.632040 -15.644361 10.416040 5.732215 1.640982 -14.315574 -46.108645 -33.285749 18.497534 36.589635 1.009385 9.976710 1.051178 0.560060 0.312630 0.846400 18.455925 -7.613296 4.283496 15.773893 14.393020 -30.816093 -54.645413 21.944930 56.051688 -3.006833 -13.114882 0.128934 -0.008530 0.052120 0.430100 -3.135169 -2.852485 -9.711454 16.171884 -3.323459 69.769010 -3.893497 3.258068 15.501270 4.853237 6.621973 -13.251483 8.237757 -3.834953 50.460351 -4.321810 2.700730 -15.742380 -8.215699 -32.624426 4.187098 13.000397 -21.009738 -8.104909 15.306572 -7.006746 -2.374306 -4.024893 2.591870 0.600610 -0.032010 0.420350 0.032490 -2.370019 29.575608 7.814242 11.702735 6.602304 -24.585221 -27.052636 62.799513 -17.703420 1.733849 -1.263028 0.046510 0.173960 -0.165570 -0.093440 
-0.273130 14.350570 -2.434700 -40.807040 9.170778 27.153031 -15.657659 10.774429 5.776461 -0.238073 -14.369741 -45.786866 -29.299789 18.786974 40.684835 1.006886 10.192454 0.902075 0.677530 0.452100 0.891060 18.380492 -7.912807 3.962170 12.261612 13.616415 -29.721780 -40.012680 17.053446 66.207020 -2.821873 -12.429982 0.225059 0.053390 -0.056370 0.507800 -3.052558 -3.061176 -9.521996 16.329790 -3.407455 71.314943 -3.652854 3.196450 16.015099 5.124857 4.993974 -13.513689 4.850603 -2.478695 50.493008 -5.235860 2.311190 -18.263050 -7.744122 -33.168687 4.455409 13.775799 -19.713983 -8.361533 15.312240 -6.745659 -2.395132 -3.981597 2.710980 0.629390 -0.083090 0.503600 0.032590 -3.458814 31.968321 6.881405 7.344618 9.842601 -24.546241 -26.143981 57.308543 -14.917851 1.782068 -1.419849 0.138930 0.081330 -0.200950 -0.089880 
-0.241200 14.466710 -2.444220 -38.125208 8.587790 27.917275 -15.709075 11.050373 5.995502 -3.268118 -15.732395 -46.550701 -24.717223 18.496234 44.795133 1.079841 10.111551 0.828649 0.802220 0.650080 0.908260 18.275595 -8.244720 3.465430 7.016850 12.353844 -28.933712 -34.459305 13.937293 66.681613 -2.634495 -11.437177 0.437417 0.080880 -0.244120 0.538900 -2.881979 -3.346441 -9.405887 13.249799 -1.051592 73.514138 -2.555958 3.569465 13.407447 4.363659 4.838752 -14.289969 4.138206 -1.962196 54.339432 -2.898240 2.458160 -22.558080 -6.943273 -34.195664 4.681291 14.386321 -19.451462 -8.587525 14.993000 -5.900945 -2.201907 -3.812455 2.815969 0.700130 -0.232470 0.663920 0.050510 -2.632724 34.005565 6.081310 4.475584 14.184637 -23.181665 -27.220337 51.083623 -13.141012 1.975967 -1.416002 0.277450 -0.035030 -0.286490 -0.056170 
-0.208660 14.609670 -2.465920 -35.170566 6.992692 28.893205 -15.771730 11.106206 6.383310 -5.219120 -17.582942 -49.481786 -20.724534 18.535656 49.620074 1.275641 10.290181 0.694563 0.908390 0.797040 0.966200 18.202618 -8.446692 2.993614 2.588818 11.194175 -28.368820 -28.690392 10.317777 65.770510 -2.404542 -10.220054 0.715219 0.054730 -0.484910 0.538270 -2.727407 -3.543748 -9.405373 8.756312 2.266862 76.908585 -1.344323 4.490747 8.638144 3.485092 4.023257 -15.371230 1.666130 -0.725850 59.879648 -0.060010 3.249660 -27.565970 -5.979721 -34.648561 4.504193 15.077921 -19.621095 -9.024675 14.646292 -6.628324 -1.968724 -3.540429 2.932187 0.803100 -0.442070 0.846010 0.054830 -1.316003 36.073850 5.901453 3.502849 18.096541 -21.153756 -29.258595 43.948877 -11.678689 2.253685 -1.372257 0.411280 -0.174320 -0.401960 -0.043050 
-0.179540 14.743520 -2.471230 -34.377397 3.428006 29.868939 -15.812482 11.212861 6.567180 -5.808538 -17.181457 -53.214895 -16.926472 19.269922 54.664359 1.414772 10.944559 0.454098 0.840460 0.702030 0.906170 18.147609 -8.507650 2.803890 1.132221 11.024884 -26.958492 -26.583901 9.118927 58.738050 -2.045132 -8.614977 1.156572 -0.040590 -0.567340 0.497000 -2.599442 -3.687993 -9.405041 3.941208 7.770290 79.621749 0.371836 7.013131 3.495239 3.047125 1.736848 -17.683311 -4.894009 2.699384 65.918426 4.082340 3.214710 -28.989320 -4.947053 -35.170982 4.262324 14.058261 -20.043898 -8.769200 14.593754 -6.481570 -1.849889 -3.405957 2.900475 0.936240 -0.569970 0.902460 0.022090 -0.013769 40.057532 6.252567 1.773808 20.671861 -19.756773 -29.837948 36.106402 -9.452352 2.505917 -1.295183 0.396180 -0.211450 -0.377060 -0.063680 
-0.083980 14.825980 -2.509930 -35.329513 1.379680 31.224074 -15.768254 11.121428 6.791037 -6.423344 -16.792047 -58.430881 -11.331552 18.204561 60.041145 1.445787 11.388410 0.323774 0.753330 0.600780 0.839300 18.184965 -8.693605 2.640072 0.488184 10.728560 -25.214913 -20.863795 5.817287 54.026256 -1.652958 -7.124068 1.629179 -0.114610 -0.514770 0.449090 -2.723961 -3.261185 -9.370830 3.457629 9.346661 81.604837 -0.582261 9.040728 -0.243568 3.439506 -0.632480 -18.628857 -11.507110 5.655883 66.399749 7.525900 2.108890 -29.674820 -4.393189 -35.303147 3.318624 13.845464 -22.230961 -8.792565 14.722649 -6.433587 -1.875579 -3.397111 2.789821 0.978590 -0.596880 0.881150 0.002900 0.002488 43.076082 5.575464 -0.840685 22.576202 -18.121993 -28.730643 27.416240 -6.986265 2.744138 -1.184079 0.355220 -0.147130 -0.323030 -0.050380 
-0.007330 14.870040 -2.534900 -33.930248 1.133576 33.064769 -15.751455 11.018961 7.198590 -8.086124 -18.375697 -62.101308 -3.836960 14.650869 64.464542 1.262618 11.265624 0.361972 0.663800 0.476160 0.795060 18.205191 -9.029181 2.174158 -0.642515 8.215576 -23.378554 -16.887331 3.038871 46.185792 -1.214240 -5.515621 2.155646 -0.137820 -0.441760 0.360790 -2.801602 -2.905823 -9.285137 2.583890 9.510994 81.759382 -1.185586 9.861811 -1.700895 3.439901 -2.098864 -19.331818 -15.616472 7.417691 66.057178 10.010520 1.286350 -29.452530 -3.103364 -36.079717 1.998388 14.427931 -24.286847 -8.812609 14.338257 -5.695698 -1.894929 -3.450346 2.618530 1.032820 -0.595240 0.809950 -0.032770 -0.561142 45.233686 4.905547 -2.018329 23.862245 -16.679074 -28.113766 18.520996 -5.220220 2.922425 -1.069509 0.236140 -0.035780 -0.247230 -0.087130 
0.009120 14.905470 -2.557760 -31.593825 1.496558 34.872574 -15.749719 10.948309 7.454987 -10.727743 -20.233303 -63.894416 -2.666355 14.843087 68.152212 1.440926 11.897154 0.198313 0.621720 0.457220 0.704120 18.204507 -9.195704 1.852217 -2.493522 6.443606 -22.827510 -11.470904 0.333350 41.053256 -0.924160 -4.490252 2.506695 -0.146480 -0.379720 0.336340 -2.823000 -2.777869 -9.243114 2.011935 9.924515 81.627456 -0.760784 9.655245 -2.777918 3.150026 -3.600309 -19.574191 -19.455184 8.725852 64.835455 12.933460 -0.089220 -29.081070 -1.569752 -36.978125 1.157039 14.897666 -25.213874 -8.898641 13.851803 -5.877818 -1.838703 -3.456995 2.608832 1.014760 -0.585220 0.771890 -0.023360 -1.023666 47.177438 3.494164 -3.489504 24.783431 -15.343180 -26.015260 13.353337 -3.865065 3.046468 -0.991232 0.223240 -0.003650 -0.208870 -0.047180 
0.021380 14.910300 -2.597490 -29.645576 3.457536 36.832686 -15.813944 10.617464 7.844866 -10.743443 -22.722328 -67.554875 4.231603 11.699519 76.684603 1.674733 12.715247 -0.005178 0.642850 0.473500 0.713920 18.237376 -9.032393 1.696308 -2.109396 5.456203 -23.099531 -8.306285 -1.205846 37.098369 -0.776861 -3.836682 2.735164 -0.139070 -0.400910 0.315390 -2.802434 -2.707617 -9.407327 2.085778 8.520777 81.108863 -1.095242 9.640804 -4.029723 3.385511 -4.061178 -19.829702 -20.364174 8.640308 64.040641 12.355330 -0.768440 -27.327950 -0.620425 -37.952462 0.323554 15.818648 -26.382534 -9.120706 13.085139 -5.782851 -1.688258 -3.430466 2.636002 0.978930 -0.594410 0.757960 -0.000300 -2.168603 48.448463 2.220200 -4.465831 25.119158 -13.684754 -22.664333 10.698652 -2.763589 3.151156 -0.962105 0.238050 -0.027720 -0.247300 -0.040340 
-0.016360 14.910920 -2.655890 -25.381120 5.841820 40.632664 -15.964614 10.061958 8.394520 -11.670584 -27.318232 -71.941189 12.889715 6.177165 85.217249 1.993146 13.470391 -0.150694 0.622320 0.486370 0.686610 18.268255 -8.514656 1.632385 -3.200106 5.617274 -26.771424 -6.115038 -2.359235 37.881294 -0.765943 -3.841606 2.749671 -0.164260 -0.423700 0.275930 -2.660036 -2.894384 -9.770266 1.234874 7.726253 79.592956 -0.046365 8.883720 -6.638053 3.361555 -3.841022 -20.024571 -19.977927 8.103227 64.595080 11.910520 -0.850220 -27.369740 1.096758 -38.590748 -0.942116 15.513012 -28.125327 -9.192699 12.704194 -7.490602 -1.524286 -3.333804 2.668258 0.963500 -0.618200 0.777370 0.028950 -3.592522 48.436083 2.101511 -4.354109 26.115506 -12.032337 -20.253887 10.362319 -2.149984 3.184269 -0.868669 0.250710 -0.025240 -0.284620 -0.018040 
-0.056090 14.891210 -2.717510 -21.672434 8.624582 44.074779 -16.109042 9.426283 8.963019 -11.908619 -32.075952 -75.463177 24.751428 -4.520372 90.180480 2.295786 14.452436 -0.360725 0.565800 0.390950 0.672190 18.330518 -7.984242 1.553252 -3.002437 5.647964 -29.602299 -5.272090 -3.219154 38.486058 -0.757119 -3.901060 2.720245 -0.217160 -0.416450 0.275440 -2.566450 -2.951929 -10.182378 0.869762 5.649255 77.980797 0.281917 8.721504 -8.422023 3.371998 -3.474532 -20.728654 -19.658180 7.508947 65.093841 11.728940 -1.412100 -26.474080 2.824839 -39.440352 -2.577013 14.859221 -29.966891 -8.784402 11.929655 -7.595528 -1.420244 -3.327488 2.659774 0.991080 -0.616510 0.762530 0.009120 -5.101331 48.694589 2.520997 -3.733059 26.223053 -11.930731 -20.356404 10.669216 -2.074999 3.181541 -0.831051 0.221090 -0.034720 -0.256160 -0.040010 
